<svg xmlns="http://www.w3.org/2000/svg" width="1600" height="900" viewBox="0 0 1600 900">
  <defs>
    <linearGradient id="sky" x1="0" y1="0" x2="1" y2="1">
      <stop offset="0" stop-color="#182233"/>
      <stop offset="1" stop-color="#05070b"/>
    </linearGradient>
    <radialGradient id="lamp" cx="62%" cy="35%" r="35%">
      <stop offset="0" stop-color="#e9bd6b" stop-opacity="0.65"/>
      <stop offset="1" stop-color="#e9bd6b" stop-opacity="0"/>
    </radialGradient>
  </defs>
  <rect width="1600" height="900" fill="url(#sky)"/>
  <rect y="600" width="1600" height="300" fill="#111723"/>
  <rect x="150" y="180" width="420" height="350" rx="10" fill="#101827" stroke="#304157" stroke-width="8"/>
  <path d="M190 220h340M190 300h340M190 380h340M270 190v330M410 190v330" stroke="#2d4059" stroke-width="8"/>
  <rect x="860" y="260" width="390" height="250" rx="8" fill="#1a2431"/>
  <rect x="900" y="300" width="310" height="170" fill="#0b111a"/>
  <rect x="690" y="600" width="470" height="54" rx="12" fill="#2b1d16"/>
  <rect x="730" y="650" width="28" height="180" fill="#1d1512"/>
  <rect x="1080" y="650" width="28" height="180" fill="#1d1512"/>
  <path d="M0 115 C250 170 350 70 600 130 S1040 190 1600 90" stroke="#5e7ca0" stroke-opacity="0.28" stroke-width="6" fill="none"/>
  <g opacity="0.35" stroke="#9fb5d0" stroke-width="3">
    <path d="M80 0l-60 220"/><path d="M210 0l-80 280"/><path d="M420 0l-100 360"/><path d="M760 0l-120 420"/><path d="M1180 0l-160 500"/><path d="M1470 0l-120 440"/>
  </g>
  <circle cx="1040" cy="355" r="250" fill="url(#lamp)"/>
  <text x="70" y="830" font-family="monospace" font-size="38" fill="#f2c46d" opacity="0.5">SAFEHOUSE / RAIN NIGHT</text>
</svg>
