<svg xmlns="http://www.w3.org/2000/svg" width="1600" height="900" viewBox="0 0 1600 900">
  <defs>
    <linearGradient id="bg" x1="0" y1="0" x2="0" y2="1">
      <stop offset="0" stop-color="#111b2a"/>
      <stop offset="1" stop-color="#040506"/>
    </linearGradient>
    <linearGradient id="platform" x1="0" y1="0" x2="1" y2="0">
      <stop offset="0" stop-color="#222a33"/>
      <stop offset="1" stop-color="#111820"/>
    </linearGradient>
  </defs>
  <rect width="1600" height="900" fill="url(#bg)"/>
  <path d="M0 620 H1600 L1400 900 H160 Z" fill="url(#platform)"/>
  <g stroke="#6a798b" stroke-width="10" opacity="0.45">
    <path d="M0 690 H1600"/><path d="M0 760 H1600"/><path d="M260 620 L120 900"/><path d="M620 620 L560 900"/><path d="M980 620 L1060 900"/><path d="M1340 620 L1500 900"/>
  </g>
  <g fill="#c6d6e8" opacity="0.22">
    <rect x="240" y="180" width="70" height="420"/><rect x="780" y="130" width="70" height="490"/><rect x="1280" y="190" width="70" height="410"/>
  </g>
  <g fill="#ffd36e" opacity="0.55">
    <circle cx="275" cy="190" r="48"/><circle cx="815" cy="145" r="55"/><circle cx="1315" cy="200" r="44"/>
  </g>
  <rect x="90" y="470" width="460" height="90" rx="8" fill="#101820" stroke="#536170" stroke-width="4"/>
  <text x="130" y="532" font-family="monospace" font-size="42" fill="#dce9f5" opacity="0.9">PLATFORM 3</text>
  <path d="M980 480 C1160 420 1320 460 1520 420" stroke="#b8c7d9" stroke-width="6" opacity="0.18" fill="none"/>
  <text x="70" y="840" font-family="monospace" font-size="38" fill="#9ad7ff" opacity="0.5">NORTH STATION / LAST TRAIN</text>
</svg>
