<svg xmlns="http://www.w3.org/2000/svg" width="480" height="760" viewBox="0 0 480 760">
  <defs>
    <linearGradient id="cloak" x1="0" y1="0" x2="1" y2="1"><stop offset="0" stop-color="#1b2b3c"/><stop offset="1" stop-color="#06080c"/></linearGradient>
    <radialGradient id="glow" cx="50%" cy="32%" r="55%"><stop offset="0" stop-color="#9ad7ff" stop-opacity="0.35"/><stop offset="1" stop-color="#9ad7ff" stop-opacity="0"/></radialGradient>
  </defs>
  <ellipse cx="240" cy="720" rx="172" ry="38" fill="#000" opacity="0.28"/>
  <path d="M112 716 C118 520 132 382 226 315 H254 C348 382 362 520 368 716 Z" fill="url(#cloak)"/>
  <circle cx="240" cy="220" r="118" fill="#d1a286" opacity="0.9"/>
  <path d="M118 246 C120 94 356 72 368 248 C306 195 184 194 118 246" fill="#090b10"/>
  <path d="M160 250 C205 230 278 230 330 250" stroke="#0b1117" stroke-width="26" fill="none" stroke-linecap="round"/>
  <path d="M185 278 Q215 268 240 282" stroke="#132033" stroke-width="7" fill="none" stroke-linecap="round"/>
  <path d="M285 282 Q310 268 336 278" stroke="#132033" stroke-width="7" fill="none" stroke-linecap="round"/>
  <path d="M210 330 Q240 350 272 330" stroke="#693a40" stroke-width="6" fill="none" stroke-linecap="round"/>
  <circle cx="240" cy="250" r="180" fill="url(#glow)"/>
  <text x="240" y="690" text-anchor="middle" font-family="monospace" font-size="32" fill="#9ad7ff">LIN WAN</text>
</svg>
